<svg xmlns="http://www.w3.org/2000/svg" width="920" height="520" viewBox="0 0 920 520">
<rect width="100%" height="100%" fill="white"/>
<text x="460.0" y="30" text-anchor="middle" font-family="sans-serif" font-size="20">Maximum one-MCS cell-count drift</text>
<line x1="90" y1="55" x2="90" y2="390" stroke="#222"/>
<line x1="90" y1="390" x2="890" y2="390" stroke="#222"/>
<text transform="translate(22 222.5) rotate(-90)" text-anchor="middle" font-family="sans-serif" font-size="14">maximum absolute drift</text>
<line x1="90" y1="390.0" x2="890" y2="390.0" stroke="#ddd"/>
<text x="82" y="394.0" text-anchor="end" font-family="monospace" font-size="11">0.0</text>
<line x1="90" y1="306.25" x2="890" y2="306.25" stroke="#ddd"/>
<text x="82" y="310.25" text-anchor="end" font-family="monospace" font-size="11">0.103</text>
<line x1="90" y1="222.5" x2="890" y2="222.5" stroke="#ddd"/>
<text x="82" y="226.5" text-anchor="end" font-family="monospace" font-size="11">0.206</text>
<line x1="90" y1="138.75" x2="890" y2="138.75" stroke="#ddd"/>
<text x="82" y="142.75" text-anchor="end" font-family="monospace" font-size="11">0.309</text>
<line x1="90" y1="55.0" x2="890" y2="55.0" stroke="#ddd"/>
<text x="82" y="59.0" text-anchor="end" font-family="monospace" font-size="11">0.413</text>
<rect x="118.0" y="125.66731539639562" width="64.8" height="264.3326846036044" fill="#36558f"><title>2d-moore-noflux-zero-mixed: 0.3254842758178711</title></rect>
<rect x="190.0" y="85.4545454545455" width="64.8" height="304.5454545454545" fill="#e07a5f"><title>2d-moore-noflux-zero-mixed: 0.375</title></rect>
<text transform="translate(190.0 402) rotate(35)" text-anchor="start" font-family="sans-serif" font-size="11">2d-moore-noflux-zero-mixed</text>
<rect x="318.0" y="390.0" width="64.8" height="0.0" fill="#36558f"><title>2d-vn-periodic-zero-sparse: 0.0</title></rect>
<rect x="390.0" y="186.96969695197012" width="64.8" height="203.03030304802988" fill="#e07a5f"><title>2d-vn-periodic-zero-sparse: 0.2500000000218279</title></rect>
<text transform="translate(390.0 402) rotate(35)" text-anchor="start" font-family="sans-serif" font-size="11">2d-vn-periodic-zero-sparse</text>
<rect x="518.0" y="390.0" width="64.8" height="0.0" fill="#36558f"><title>3d-vn-noflux-zero-lowering: 0.0</title></rect>
<rect x="590.0" y="390.0" width="64.8" height="0.0" fill="#e07a5f"><title>3d-vn-noflux-zero-lowering: 0.0</title></rect>
<text transform="translate(590.0 402) rotate(35)" text-anchor="start" font-family="sans-serif" font-size="11">3d-vn-noflux-zero-lowering</text>
<rect x="718.0" y="390.0" width="64.8" height="0.0" fill="#36558f"><title>hand-derived-1d-noflux-zero: 0.0</title></rect>
<rect x="790.0" y="390.0" width="64.8" height="0.0" fill="#e07a5f"><title>hand-derived-1d-noflux-zero: 0.0</title></rect>
<text transform="translate(790.0 402) rotate(35)" text-anchor="start" font-family="sans-serif" font-size="11">hand-derived-1d-noflux-zero</text>
<rect x="90" y="492" width="14" height="14" fill="#36558f"/>
<text x="110" y="504" font-family="sans-serif" font-size="12">sequential</text>
<rect x="270" y="492" width="14" height="14" fill="#e07a5f"/>
<text x="290" y="504" font-family="sans-serif" font-size="12">checkerboard</text>
</svg>
