<svg xmlns="http://www.w3.org/2000/svg" width="920" height="520" viewBox="0 0 920 520">
<rect width="100%" height="100%" fill="white"/>
<text x="460.0" y="30" text-anchor="middle" font-family="sans-serif" font-size="20">Checkerboard stationary probability currents</text>
<line x1="90" y1="55" x2="90" y2="390" stroke="#222"/>
<line x1="90" y1="390" x2="890" y2="390" stroke="#222"/>
<text transform="translate(22 222.5) rotate(-90)" text-anchor="middle" font-family="sans-serif" font-size="14">probability current</text>
<line x1="90" y1="390.0" x2="890" y2="390.0" stroke="#ddd"/>
<text x="82" y="394.0" text-anchor="end" font-family="monospace" font-size="11">0.0</text>
<line x1="90" y1="306.25" x2="890" y2="306.25" stroke="#ddd"/>
<text x="82" y="310.25" text-anchor="end" font-family="monospace" font-size="11">0.25</text>
<line x1="90" y1="222.5" x2="890" y2="222.5" stroke="#ddd"/>
<text x="82" y="226.5" text-anchor="end" font-family="monospace" font-size="11">0.5</text>
<line x1="90" y1="138.75" x2="890" y2="138.75" stroke="#ddd"/>
<text x="82" y="142.75" text-anchor="end" font-family="monospace" font-size="11">0.75</text>
<line x1="90" y1="55.0" x2="890" y2="55.0" stroke="#ddd"/>
<text x="82" y="59.0" text-anchor="end" font-family="monospace" font-size="11">1.0</text>
<rect x="118.0" y="390.0" width="129.6" height="0.0" fill="#36558f"><title>2d-moore-noflux-zero-mixed: 0.0</title></rect>
<text transform="translate(190.0 402) rotate(35)" text-anchor="start" font-family="sans-serif" font-size="11">2d-moore-noflux-zero-mixed</text>
<rect x="318.0" y="390.0" width="129.6" height="0.0" fill="#36558f"><title>2d-vn-periodic-zero-sparse: 0.0</title></rect>
<text transform="translate(390.0 402) rotate(35)" text-anchor="start" font-family="sans-serif" font-size="11">2d-vn-periodic-zero-sparse</text>
<rect x="518.0" y="390.0" width="129.6" height="0.0" fill="#36558f"><title>3d-vn-noflux-zero-lowering: 0.0</title></rect>
<text transform="translate(590.0 402) rotate(35)" text-anchor="start" font-family="sans-serif" font-size="11">3d-vn-noflux-zero-lowering</text>
<rect x="718.0" y="390.0" width="129.6" height="0.0" fill="#36558f"><title>hand-derived-1d-noflux-zero: 0.0</title></rect>
<text transform="translate(790.0 402) rotate(35)" text-anchor="start" font-family="sans-serif" font-size="11">hand-derived-1d-noflux-zero</text>
<rect x="90" y="492" width="14" height="14" fill="#36558f"/>
<text x="110" y="504" font-family="sans-serif" font-size="12">maximum |current|</text>
</svg>
