<svg xmlns="http://www.w3.org/2000/svg" width="920" height="520" viewBox="0 0 920 520">
<rect width="100%" height="100%" fill="white"/>
<text x="460.0" y="30" text-anchor="middle" font-family="sans-serif" font-size="20">Normalized-MCS spectral gaps</text>
<line x1="90" y1="55" x2="90" y2="390" stroke="#222"/>
<line x1="90" y1="390" x2="890" y2="390" stroke="#222"/>
<text transform="translate(22 222.5) rotate(-90)" text-anchor="middle" font-family="sans-serif" font-size="14">spectral gap</text>
<line x1="90" y1="390.0" x2="890" y2="390.0" stroke="#ddd"/>
<text x="82" y="394.0" text-anchor="end" font-family="monospace" font-size="11">0.0</text>
<line x1="90" y1="306.25" x2="890" y2="306.25" stroke="#ddd"/>
<text x="82" y="310.25" text-anchor="end" font-family="monospace" font-size="11">0.206</text>
<line x1="90" y1="222.5" x2="890" y2="222.5" stroke="#ddd"/>
<text x="82" y="226.5" text-anchor="end" font-family="monospace" font-size="11">0.413</text>
<line x1="90" y1="138.75" x2="890" y2="138.75" stroke="#ddd"/>
<text x="82" y="142.75" text-anchor="end" font-family="monospace" font-size="11">0.619</text>
<line x1="90" y1="55.0" x2="890" y2="55.0" stroke="#ddd"/>
<text x="82" y="59.0" text-anchor="end" font-family="monospace" font-size="11">0.825</text>
<rect x="118.0" y="257.83365769819784" width="64.8" height="132.1663423018022" fill="#36558f"><title>2d-moore-noflux-zero-mixed: 0.3254842758178711</title></rect>
<rect x="190.0" y="237.72727272727275" width="64.8" height="152.27272727272725" fill="#e07a5f"><title>2d-moore-noflux-zero-mixed: 0.375</title></rect>
<text transform="translate(190.0 402) rotate(35)" text-anchor="start" font-family="sans-serif" font-size="11">2d-moore-noflux-zero-mixed</text>
<rect x="318.0" y="199.47232046855768" width="64.8" height="190.52767953144232" fill="#36558f"><title>2d-vn-periodic-zero-sparse: 0.46920995705504454</title></rect>
<rect x="390.0" y="123.5227272727272" width="64.8" height="266.4772727272728" fill="#e07a5f"><title>2d-vn-periodic-zero-sparse: 0.6562500000000002</title></rect>
<text transform="translate(390.0 402) rotate(35)" text-anchor="start" font-family="sans-serif" font-size="11">2d-vn-periodic-zero-sparse</text>
<rect x="518.0" y="265.9259259259259" width="64.8" height="124.07407407407406" fill="#36558f"><title>3d-vn-noflux-zero-lowering: 0.3055555555555556</title></rect>
<rect x="590.0" y="265.9259259259259" width="64.8" height="124.07407407407406" fill="#e07a5f"><title>3d-vn-noflux-zero-lowering: 0.3055555555555556</title></rect>
<text transform="translate(590.0 402) rotate(35)" text-anchor="start" font-family="sans-serif" font-size="11">3d-vn-noflux-zero-lowering</text>
<rect x="718.0" y="85.4545454545455" width="64.8" height="304.5454545454545" fill="#36558f"><title>hand-derived-1d-noflux-zero: 0.75</title></rect>
<rect x="790.0" y="85.4545454545455" width="64.8" height="304.5454545454545" fill="#e07a5f"><title>hand-derived-1d-noflux-zero: 0.75</title></rect>
<text transform="translate(790.0 402) rotate(35)" text-anchor="start" font-family="sans-serif" font-size="11">hand-derived-1d-noflux-zero</text>
<rect x="90" y="492" width="14" height="14" fill="#36558f"/>
<text x="110" y="504" font-family="sans-serif" font-size="12">sequential</text>
<rect x="270" y="492" width="14" height="14" fill="#e07a5f"/>
<text x="290" y="504" font-family="sans-serif" font-size="12">checkerboard</text>
</svg>
