<svg xmlns="http://www.w3.org/2000/svg" width="920" height="520" viewBox="0 0 920 520">
<rect width="100%" height="100%" fill="white"/>
<text x="460.0" y="30" text-anchor="middle" font-family="sans-serif" font-size="20">Phase 13 CPU speed–fidelity evidence</text>
<text x="460.0" y="50" text-anchor="middle" font-family="sans-serif" font-size="12">Isolated eight-replica diagnostic timing; fidelity uses the registered 512-replica Holm-adjusted v4 battery</text>
<line x1="95" y1="65" x2="95" y2="430" stroke="#222"/>
<line x1="95" y1="430" x2="885" y2="430" stroke="#222"/>
<text x="490.0" y="500" text-anchor="middle" font-family="sans-serif" font-size="14">checkerboard / sequential median measured MCS/s</text>
<text transform="translate(24 247.5) rotate(-90)" text-anchor="middle" font-family="sans-serif" font-size="14">fraction of registered endpoints equivalent</text>
<line x1="95" y1="430.0" x2="885" y2="430.0" stroke="#ddd"/>
<text x="87" y="434.0" text-anchor="end" font-family="monospace" font-size="11">0.0</text>
<line x1="95" y1="338.75" x2="885" y2="338.75" stroke="#ddd"/>
<text x="87" y="342.75" text-anchor="end" font-family="monospace" font-size="11">0.25</text>
<line x1="95" y1="247.5" x2="885" y2="247.5" stroke="#ddd"/>
<text x="87" y="251.5" text-anchor="end" font-family="monospace" font-size="11">0.5</text>
<line x1="95" y1="156.25" x2="885" y2="156.25" stroke="#ddd"/>
<text x="87" y="160.25" text-anchor="end" font-family="monospace" font-size="11">0.75</text>
<line x1="95" y1="65.0" x2="885" y2="65.0" stroke="#ddd"/>
<text x="87" y="69.0" text-anchor="end" font-family="monospace" font-size="11">1.0</text>
<line x1="95.0" y1="65" x2="95.0" y2="430" stroke="#eee"/>
<text x="95.0" y="448" text-anchor="middle" font-family="monospace" font-size="11">0.5x</text>
<line x1="490.0" y1="65" x2="490.0" y2="430" stroke="#999"/>
<text x="490.0" y="448" text-anchor="middle" font-family="monospace" font-size="11">1.0x</text>
<line x1="885.0" y1="65" x2="885.0" y2="430" stroke="#eee"/>
<text x="885.0" y="448" text-anchor="middle" font-family="monospace" font-size="11">2.0x</text>
<circle cx="483.8717253448936" cy="377.8571428571429" r="8" fill="#36558f"><title>adhesion volume relaxation: 0.9893037019400646x, 2/14 endpoints</title></circle>
<text x="494.8717253448936" y="367.8571428571429" font-family="sans-serif" font-size="11">adhesion volume relaxation</text>
<circle cx="484.51815229962153" cy="403.92857142857144" r="8" fill="#e07a5f"><title>differential adhesion sorting: 0.9904265572618103x, 1/14 endpoints</title></circle>
<text x="495.51815229962153" y="411.92857142857144" font-family="sans-serif" font-size="11">differential adhesion sorting</text>
<circle cx="463.700238693321" cy="325.7142857142857" r="8" fill="#3d9970"><title>single cell migration: 0.9548978574754765x, 4/14 endpoints</title></circle>
<text x="474.700238693321" y="351.7142857142857" font-family="sans-serif" font-size="11">single cell migration</text>
<text x="885" y="80" text-anchor="end" font-family="sans-serif" font-size="12">family result: equivalence-fail</text>
</svg>
